<svg xmlns="http://www.w3.org/2000/svg" width="52" height="52" viewBox="0 0 52 52" fill="none">
<path d="M25.9996 26.3931C23.6434 26.3931 21.7156 24.4653 21.7156 22.109C21.7156 19.7528 23.6434 17.8249 25.9996 17.8249C28.3559 17.8249 30.2837 19.7528 30.2837 22.109C30.2837 24.4653 28.3559 26.3931 25.9996 26.3931Z" fill="white"/>
<path fill-rule="evenodd" clip-rule="evenodd" d="M38.8519 22.5374C38.8519 14.7618 33.1755 9.25675 25.9996 9.25675C18.8238 9.25675 13.1474 14.7618 13.1474 22.5374C13.1474 27.5498 17.3244 34.1902 25.9996 42.1157C34.6749 34.1902 38.8519 27.5498 38.8519 22.5374ZM21.7156 22.109C21.7156 24.4653 23.6434 26.3931 25.9996 26.3931C28.3559 26.3931 30.2837 24.4653 30.2837 22.109C30.2837 19.7528 28.3559 17.8249 25.9996 17.8249C23.6434 17.8249 21.7156 19.7528 21.7156 22.109Z" fill="#224099"/>
<path fill-rule="evenodd" clip-rule="evenodd" d="M25.9996 4.97266C34.9962 4.97266 43.136 11.87 43.136 22.5374C43.136 29.649 37.4167 38.0673 25.9996 47.8136C14.5825 38.0673 8.86328 29.649 8.86328 22.5374C8.86328 11.87 17.0031 4.97266 25.9996 4.97266ZM25.9996 9.25675C33.1755 9.25675 38.8519 14.7618 38.8519 22.5374C38.8519 27.5498 34.6749 34.1902 25.9996 42.1157C17.3244 34.1902 13.1474 27.5498 13.1474 22.5374C13.1474 14.7618 18.8238 9.25675 25.9996 9.25675Z" fill="#224099"/>
<circle cx="26.0002" cy="21.8635" r="7.68182" fill="white"/>
</svg>