<svg width="36" height="36" viewBox="0 0 36 36" fill="none" xmlns="http://www.w3.org/2000/svg">
<g clipPath="url(#clip0_308_1952)">
<g clipPath="url(#clip1_308_1952)">
<path d="M13.82 11.5046C13.82 12.4252 13.08 13.1712 12.1667 13.1712C11.2533 13.1712 10.5133 12.4252 10.5133 11.5046C10.5133 10.5846 11.2533 9.83789 12.1667 9.83789C13.08 9.83789 13.82 10.5846 13.82 11.5046ZM13.8333 14.5046H10.5V25.1712H13.8333V14.5046ZM19.1547 14.5046H15.8427V25.1712H19.1553V19.5719C19.1553 16.4586 23.1747 16.2039 23.1747 19.5719V25.1712H26.5V18.4172C26.5 13.1639 20.552 13.3552 19.1547 15.9412V14.5046Z" fill="#224099"/>
</g>
<circle cx="18" cy="18" r="17.5" stroke="#224099"/>
</g>
<defs>
<clipPath id="clip0_308_1952">
<rect width="36" height="36" fill="white"/>
</clipPath>
<clipPath id="clip1_308_1952">
<rect width="16" height="16" fill="white" transform="translate(10.5 9.5)"/>
</clipPath>
</defs>
</svg>
